<mxfile host="Electron" agent="Mozilla/5.0 (Windows NT 10.0; Win64; x64) AppleWebKit/537.36 (KHTML, like Gecko) draw.io/26.2.2 Chrome/134.0.6998.178 Electron/35.1.2 Safari/537.36" version="26.2.2">
  <diagram id="C5RBs43oDa-KdzZeNtuy" name="Page-1">
    <mxGraphModel dx="1455" dy="1665" grid="1" gridSize="10" guides="1" tooltips="1" connect="1" arrows="1" fold="1" page="1" pageScale="1" pageWidth="827" pageHeight="1169" math="0" shadow="0">
      <root>
        <mxCell id="WIyWlLk6GJQsqaUBKTNV-0" />
        <mxCell id="WIyWlLk6GJQsqaUBKTNV-1" parent="WIyWlLk6GJQsqaUBKTNV-0" />
        <mxCell id="QLSxIjkthWTMOEqyVeDs-0" value="User" style="swimlane;fontStyle=0;childLayout=stackLayout;horizontal=1;startSize=26;fillColor=none;horizontalStack=0;resizeParent=1;resizeParentMax=0;resizeLast=0;collapsible=1;marginBottom=0;whiteSpace=wrap;html=1;" parent="WIyWlLk6GJQsqaUBKTNV-1" vertex="1">
          <mxGeometry x="180" y="100" width="140" height="340" as="geometry" />
        </mxCell>
        <mxCell id="QLSxIjkthWTMOEqyVeDs-1" value="userID:int (PK)" style="text;strokeColor=none;fillColor=none;align=left;verticalAlign=top;spacingLeft=4;spacingRight=4;overflow=hidden;rotatable=0;points=[[0,0.5],[1,0.5]];portConstraint=eastwest;whiteSpace=wrap;html=1;" parent="QLSxIjkthWTMOEqyVeDs-0" vertex="1">
          <mxGeometry y="26" width="140" height="26" as="geometry" />
        </mxCell>
        <mxCell id="QLSxIjkthWTMOEqyVeDs-2" value="firstname: string" style="text;strokeColor=none;fillColor=none;align=left;verticalAlign=top;spacingLeft=4;spacingRight=4;overflow=hidden;rotatable=0;points=[[0,0.5],[1,0.5]];portConstraint=eastwest;whiteSpace=wrap;html=1;" parent="QLSxIjkthWTMOEqyVeDs-0" vertex="1">
          <mxGeometry y="52" width="140" height="26" as="geometry" />
        </mxCell>
        <mxCell id="QLSxIjkthWTMOEqyVeDs-4" value="lastname: string" style="text;strokeColor=none;fillColor=none;align=left;verticalAlign=top;spacingLeft=4;spacingRight=4;overflow=hidden;rotatable=0;points=[[0,0.5],[1,0.5]];portConstraint=eastwest;whiteSpace=wrap;html=1;" parent="QLSxIjkthWTMOEqyVeDs-0" vertex="1">
          <mxGeometry y="78" width="140" height="26" as="geometry" />
        </mxCell>
        <mxCell id="QLSxIjkthWTMOEqyVeDs-5" value="email: string" style="text;strokeColor=none;fillColor=none;align=left;verticalAlign=top;spacingLeft=4;spacingRight=4;overflow=hidden;rotatable=0;points=[[0,0.5],[1,0.5]];portConstraint=eastwest;whiteSpace=wrap;html=1;" parent="QLSxIjkthWTMOEqyVeDs-0" vertex="1">
          <mxGeometry y="104" width="140" height="26" as="geometry" />
        </mxCell>
        <mxCell id="QLSxIjkthWTMOEqyVeDs-6" value="passwordHash: stored hash" style="text;strokeColor=none;fillColor=none;align=left;verticalAlign=top;spacingLeft=4;spacingRight=4;overflow=hidden;rotatable=0;points=[[0,0.5],[1,0.5]];portConstraint=eastwest;whiteSpace=wrap;html=1;" parent="QLSxIjkthWTMOEqyVeDs-0" vertex="1">
          <mxGeometry y="130" width="140" height="40" as="geometry" />
        </mxCell>
        <mxCell id="QLSxIjkthWTMOEqyVeDs-7" value="role: enum(ADMIN,USER)" style="text;strokeColor=none;fillColor=none;align=left;verticalAlign=top;spacingLeft=4;spacingRight=4;overflow=hidden;rotatable=0;points=[[0,0.5],[1,0.5]];portConstraint=eastwest;whiteSpace=wrap;html=1;" parent="QLSxIjkthWTMOEqyVeDs-0" vertex="1">
          <mxGeometry y="170" width="140" height="40" as="geometry" />
        </mxCell>
        <mxCell id="QLSxIjkthWTMOEqyVeDs-8" value="academicTitle: string" style="text;strokeColor=none;fillColor=none;align=left;verticalAlign=top;spacingLeft=4;spacingRight=4;overflow=hidden;rotatable=0;points=[[0,0.5],[1,0.5]];portConstraint=eastwest;whiteSpace=wrap;html=1;" parent="QLSxIjkthWTMOEqyVeDs-0" vertex="1">
          <mxGeometry y="210" width="140" height="26" as="geometry" />
        </mxCell>
        <mxCell id="QLSxIjkthWTMOEqyVeDs-9" value="profession: string" style="text;strokeColor=none;fillColor=none;align=left;verticalAlign=top;spacingLeft=4;spacingRight=4;overflow=hidden;rotatable=0;points=[[0,0.5],[1,0.5]];portConstraint=eastwest;whiteSpace=wrap;html=1;" parent="QLSxIjkthWTMOEqyVeDs-0" vertex="1">
          <mxGeometry y="236" width="140" height="26" as="geometry" />
        </mxCell>
        <mxCell id="QLSxIjkthWTMOEqyVeDs-10" value="refreshToken: string" style="text;strokeColor=none;fillColor=none;align=left;verticalAlign=top;spacingLeft=4;spacingRight=4;overflow=hidden;rotatable=0;points=[[0,0.5],[1,0.5]];portConstraint=eastwest;whiteSpace=wrap;html=1;" parent="QLSxIjkthWTMOEqyVeDs-0" vertex="1">
          <mxGeometry y="262" width="140" height="26" as="geometry" />
        </mxCell>
        <mxCell id="QLSxIjkthWTMOEqyVeDs-11" value="created_at: timestamp" style="text;strokeColor=none;fillColor=none;align=left;verticalAlign=top;spacingLeft=4;spacingRight=4;overflow=hidden;rotatable=0;points=[[0,0.5],[1,0.5]];portConstraint=eastwest;whiteSpace=wrap;html=1;" parent="QLSxIjkthWTMOEqyVeDs-0" vertex="1">
          <mxGeometry y="288" width="140" height="26" as="geometry" />
        </mxCell>
        <mxCell id="QLSxIjkthWTMOEqyVeDs-12" value="updated_at: timestamp" style="text;strokeColor=none;fillColor=none;align=left;verticalAlign=top;spacingLeft=4;spacingRight=4;overflow=hidden;rotatable=0;points=[[0,0.5],[1,0.5]];portConstraint=eastwest;whiteSpace=wrap;html=1;" parent="QLSxIjkthWTMOEqyVeDs-0" vertex="1">
          <mxGeometry y="314" width="140" height="26" as="geometry" />
        </mxCell>
        <mxCell id="QLSxIjkthWTMOEqyVeDs-13" value="Project" style="swimlane;fontStyle=0;childLayout=stackLayout;horizontal=1;startSize=26;fillColor=none;horizontalStack=0;resizeParent=1;resizeParentMax=0;resizeLast=0;collapsible=1;marginBottom=0;whiteSpace=wrap;html=1;" parent="WIyWlLk6GJQsqaUBKTNV-1" vertex="1">
          <mxGeometry x="540" width="140" height="324" as="geometry" />
        </mxCell>
        <mxCell id="QLSxIjkthWTMOEqyVeDs-14" value="projectID:int (PK)" style="text;strokeColor=none;fillColor=none;align=left;verticalAlign=top;spacingLeft=4;spacingRight=4;overflow=hidden;rotatable=0;points=[[0,0.5],[1,0.5]];portConstraint=eastwest;whiteSpace=wrap;html=1;" parent="QLSxIjkthWTMOEqyVeDs-13" vertex="1">
          <mxGeometry y="26" width="140" height="26" as="geometry" />
        </mxCell>
        <mxCell id="QLSxIjkthWTMOEqyVeDs-15" value="title: string" style="text;strokeColor=none;fillColor=none;align=left;verticalAlign=top;spacingLeft=4;spacingRight=4;overflow=hidden;rotatable=0;points=[[0,0.5],[1,0.5]];portConstraint=eastwest;whiteSpace=wrap;html=1;" parent="QLSxIjkthWTMOEqyVeDs-13" vertex="1">
          <mxGeometry y="52" width="140" height="26" as="geometry" />
        </mxCell>
        <mxCell id="QLSxIjkthWTMOEqyVeDs-16" value="description: string" style="text;strokeColor=none;fillColor=none;align=left;verticalAlign=top;spacingLeft=4;spacingRight=4;overflow=hidden;rotatable=0;points=[[0,0.5],[1,0.5]];portConstraint=eastwest;whiteSpace=wrap;html=1;" parent="QLSxIjkthWTMOEqyVeDs-13" vertex="1">
          <mxGeometry y="78" width="140" height="26" as="geometry" />
        </mxCell>
        <mxCell id="QLSxIjkthWTMOEqyVeDs-17" value="visibility: enum(PUBLIC, PRIVATE)" style="text;strokeColor=none;fillColor=none;align=left;verticalAlign=top;spacingLeft=4;spacingRight=4;overflow=hidden;rotatable=0;points=[[0,0.5],[1,0.5]];portConstraint=eastwest;whiteSpace=wrap;html=1;" parent="QLSxIjkthWTMOEqyVeDs-13" vertex="1">
          <mxGeometry y="104" width="140" height="36" as="geometry" />
        </mxCell>
        <mxCell id="QLSxIjkthWTMOEqyVeDs-18" value="status: enum(ACTIVE, COMPLETED)" style="text;strokeColor=none;fillColor=none;align=left;verticalAlign=top;spacingLeft=4;spacingRight=4;overflow=hidden;rotatable=0;points=[[0,0.5],[1,0.5]];portConstraint=eastwest;whiteSpace=wrap;html=1;" parent="QLSxIjkthWTMOEqyVeDs-13" vertex="1">
          <mxGeometry y="140" width="140" height="40" as="geometry" />
        </mxCell>
        <mxCell id="QLSxIjkthWTMOEqyVeDs-19" value="filePath:string" style="text;strokeColor=none;fillColor=none;align=left;verticalAlign=top;spacingLeft=4;spacingRight=4;overflow=hidden;rotatable=0;points=[[0,0.5],[1,0.5]];portConstraint=eastwest;whiteSpace=wrap;html=1;" parent="QLSxIjkthWTMOEqyVeDs-13" vertex="1">
          <mxGeometry y="180" width="140" height="40" as="geometry" />
        </mxCell>
        <mxCell id="QLSxIjkthWTMOEqyVeDs-20" value="leaderID: int (FK-&amp;gt;User)" style="text;strokeColor=none;fillColor=none;align=left;verticalAlign=top;spacingLeft=4;spacingRight=4;overflow=hidden;rotatable=0;points=[[0,0.5],[1,0.5]];portConstraint=eastwest;whiteSpace=wrap;html=1;" parent="QLSxIjkthWTMOEqyVeDs-13" vertex="1">
          <mxGeometry y="220" width="140" height="26" as="geometry" />
        </mxCell>
        <mxCell id="QLSxIjkthWTMOEqyVeDs-21" value="createdByint(FK-&amp;gt;User)" style="text;strokeColor=none;fillColor=none;align=left;verticalAlign=top;spacingLeft=4;spacingRight=4;overflow=hidden;rotatable=0;points=[[0,0.5],[1,0.5]];portConstraint=eastwest;whiteSpace=wrap;html=1;" parent="QLSxIjkthWTMOEqyVeDs-13" vertex="1">
          <mxGeometry y="246" width="140" height="26" as="geometry" />
        </mxCell>
        <mxCell id="QLSxIjkthWTMOEqyVeDs-23" value="created_at: timestamp" style="text;strokeColor=none;fillColor=none;align=left;verticalAlign=top;spacingLeft=4;spacingRight=4;overflow=hidden;rotatable=0;points=[[0,0.5],[1,0.5]];portConstraint=eastwest;whiteSpace=wrap;html=1;" parent="QLSxIjkthWTMOEqyVeDs-13" vertex="1">
          <mxGeometry y="272" width="140" height="26" as="geometry" />
        </mxCell>
        <mxCell id="QLSxIjkthWTMOEqyVeDs-24" value="updated_at: timestamp" style="text;strokeColor=none;fillColor=none;align=left;verticalAlign=top;spacingLeft=4;spacingRight=4;overflow=hidden;rotatable=0;points=[[0,0.5],[1,0.5]];portConstraint=eastwest;whiteSpace=wrap;html=1;" parent="QLSxIjkthWTMOEqyVeDs-13" vertex="1">
          <mxGeometry y="298" width="140" height="26" as="geometry" />
        </mxCell>
        <mxCell id="QLSxIjkthWTMOEqyVeDs-25" value="UserProject" style="swimlane;fontStyle=0;childLayout=stackLayout;horizontal=1;startSize=26;fillColor=none;horizontalStack=0;resizeParent=1;resizeParentMax=0;resizeLast=0;collapsible=1;marginBottom=0;whiteSpace=wrap;html=1;" parent="WIyWlLk6GJQsqaUBKTNV-1" vertex="1">
          <mxGeometry x="360" y="350" width="170" height="196" as="geometry" />
        </mxCell>
        <mxCell id="QLSxIjkthWTMOEqyVeDs-26" value="userProjectID: int(PK)" style="text;strokeColor=none;fillColor=none;align=left;verticalAlign=top;spacingLeft=4;spacingRight=4;overflow=hidden;rotatable=0;points=[[0,0.5],[1,0.5]];portConstraint=eastwest;whiteSpace=wrap;html=1;" parent="QLSxIjkthWTMOEqyVeDs-25" vertex="1">
          <mxGeometry y="26" width="170" height="26" as="geometry" />
        </mxCell>
        <mxCell id="QLSxIjkthWTMOEqyVeDs-27" value="userID:int (FK-&amp;gt;User)" style="text;strokeColor=none;fillColor=none;align=left;verticalAlign=top;spacingLeft=4;spacingRight=4;overflow=hidden;rotatable=0;points=[[0,0.5],[1,0.5]];portConstraint=eastwest;whiteSpace=wrap;html=1;" parent="QLSxIjkthWTMOEqyVeDs-25" vertex="1">
          <mxGeometry y="52" width="170" height="26" as="geometry" />
        </mxCell>
        <mxCell id="QLSxIjkthWTMOEqyVeDs-28" value="projectID:int (FK-&amp;gt;Project)" style="text;strokeColor=none;fillColor=none;align=left;verticalAlign=top;spacingLeft=4;spacingRight=4;overflow=hidden;rotatable=0;points=[[0,0.5],[1,0.5]];portConstraint=eastwest;whiteSpace=wrap;html=1;" parent="QLSxIjkthWTMOEqyVeDs-25" vertex="1">
          <mxGeometry y="78" width="170" height="42" as="geometry" />
        </mxCell>
        <mxCell id="QLSxIjkthWTMOEqyVeDs-29" value="role:enum(COLLABORATOR, REVIEWER, etc)" style="text;strokeColor=none;fillColor=none;align=left;verticalAlign=top;spacingLeft=4;spacingRight=4;overflow=hidden;rotatable=0;points=[[0,0.5],[1,0.5]];portConstraint=eastwest;whiteSpace=wrap;html=1;" parent="QLSxIjkthWTMOEqyVeDs-25" vertex="1">
          <mxGeometry y="120" width="170" height="36" as="geometry" />
        </mxCell>
        <mxCell id="QLSxIjkthWTMOEqyVeDs-30" value="joined_at:timestamp" style="text;strokeColor=none;fillColor=none;align=left;verticalAlign=top;spacingLeft=4;spacingRight=4;overflow=hidden;rotatable=0;points=[[0,0.5],[1,0.5]];portConstraint=eastwest;whiteSpace=wrap;html=1;" parent="QLSxIjkthWTMOEqyVeDs-25" vertex="1">
          <mxGeometry y="156" width="170" height="40" as="geometry" />
        </mxCell>
        <mxCell id="LJWcZ4sgkJysPHGptBHR-7" style="edgeStyle=orthogonalEdgeStyle;rounded=0;orthogonalLoop=1;jettySize=auto;html=1;entryX=0;entryY=0.5;entryDx=0;entryDy=0;" parent="WIyWlLk6GJQsqaUBKTNV-1" target="LJWcZ4sgkJysPHGptBHR-3" edge="1">
          <mxGeometry relative="1" as="geometry">
            <Array as="points">
              <mxPoint x="-20" y="730" />
              <mxPoint x="-20" y="770" />
              <mxPoint x="410" y="770" />
              <mxPoint x="410" y="654" />
            </Array>
            <mxPoint x="-20" y="770" as="sourcePoint" />
          </mxGeometry>
        </mxCell>
        <mxCell id="QLSxIjkthWTMOEqyVeDs-36" value="Paper" style="swimlane;fontStyle=0;childLayout=stackLayout;horizontal=1;startSize=26;fillColor=none;horizontalStack=0;resizeParent=1;resizeParentMax=0;resizeLast=0;collapsible=1;marginBottom=0;whiteSpace=wrap;html=1;" parent="WIyWlLk6GJQsqaUBKTNV-1" vertex="1">
          <mxGeometry x="-70" y="400" width="140" height="328" as="geometry" />
        </mxCell>
        <mxCell id="QLSxIjkthWTMOEqyVeDs-37" value="paperID:int (PK)" style="text;strokeColor=none;fillColor=none;align=left;verticalAlign=top;spacingLeft=4;spacingRight=4;overflow=hidden;rotatable=0;points=[[0,0.5],[1,0.5]];portConstraint=eastwest;whiteSpace=wrap;html=1;" parent="QLSxIjkthWTMOEqyVeDs-36" vertex="1">
          <mxGeometry y="26" width="140" height="26" as="geometry" />
        </mxCell>
        <mxCell id="QLSxIjkthWTMOEqyVeDs-38" value="title: string" style="text;strokeColor=none;fillColor=none;align=left;verticalAlign=top;spacingLeft=4;spacingRight=4;overflow=hidden;rotatable=0;points=[[0,0.5],[1,0.5]];portConstraint=eastwest;whiteSpace=wrap;html=1;" parent="QLSxIjkthWTMOEqyVeDs-36" vertex="1">
          <mxGeometry y="52" width="140" height="26" as="geometry" />
        </mxCell>
        <mxCell id="QLSxIjkthWTMOEqyVeDs-39" value="description: string" style="text;strokeColor=none;fillColor=none;align=left;verticalAlign=top;spacingLeft=4;spacingRight=4;overflow=hidden;rotatable=0;points=[[0,0.5],[1,0.5]];portConstraint=eastwest;whiteSpace=wrap;html=1;" parent="QLSxIjkthWTMOEqyVeDs-36" vertex="1">
          <mxGeometry y="78" width="140" height="26" as="geometry" />
        </mxCell>
        <mxCell id="QLSxIjkthWTMOEqyVeDs-40" value="visibility: enum(PUBLIC, PRIVATE)" style="text;strokeColor=none;fillColor=none;align=left;verticalAlign=top;spacingLeft=4;spacingRight=4;overflow=hidden;rotatable=0;points=[[0,0.5],[1,0.5]];portConstraint=eastwest;whiteSpace=wrap;html=1;" parent="QLSxIjkthWTMOEqyVeDs-36" vertex="1">
          <mxGeometry y="104" width="140" height="36" as="geometry" />
        </mxCell>
        <mxCell id="b3MV7j4RhZDn1bZN0Rha-0" value="status: enum(ACTIVE, COMPLETED)" style="text;strokeColor=none;fillColor=none;align=left;verticalAlign=top;spacingLeft=4;spacingRight=4;overflow=hidden;rotatable=0;points=[[0,0.5],[1,0.5]];portConstraint=eastwest;whiteSpace=wrap;html=1;" vertex="1" parent="QLSxIjkthWTMOEqyVeDs-36">
          <mxGeometry y="140" width="140" height="36" as="geometry" />
        </mxCell>
        <mxCell id="QLSxIjkthWTMOEqyVeDs-42" value="filePath:string" style="text;strokeColor=none;fillColor=none;align=left;verticalAlign=top;spacingLeft=4;spacingRight=4;overflow=hidden;rotatable=0;points=[[0,0.5],[1,0.5]];portConstraint=eastwest;whiteSpace=wrap;html=1;" parent="QLSxIjkthWTMOEqyVeDs-36" vertex="1">
          <mxGeometry y="176" width="140" height="40" as="geometry" />
        </mxCell>
        <mxCell id="QLSxIjkthWTMOEqyVeDs-43" value="projectID:int (FK-&amp;gt;Project)" style="text;strokeColor=none;fillColor=none;align=left;verticalAlign=top;spacingLeft=4;spacingRight=4;overflow=hidden;rotatable=0;points=[[0,0.5],[1,0.5]];portConstraint=eastwest;whiteSpace=wrap;html=1;" parent="QLSxIjkthWTMOEqyVeDs-36" vertex="1">
          <mxGeometry y="216" width="140" height="30" as="geometry" />
        </mxCell>
        <mxCell id="QLSxIjkthWTMOEqyVeDs-44" value="createdBy: int(FK-&amp;gt;User)" style="text;strokeColor=none;fillColor=none;align=left;verticalAlign=top;spacingLeft=4;spacingRight=4;overflow=hidden;rotatable=0;points=[[0,0.5],[1,0.5]];portConstraint=eastwest;whiteSpace=wrap;html=1;" parent="QLSxIjkthWTMOEqyVeDs-36" vertex="1">
          <mxGeometry y="246" width="140" height="30" as="geometry" />
        </mxCell>
        <mxCell id="QLSxIjkthWTMOEqyVeDs-45" value="created_at: timestamp" style="text;strokeColor=none;fillColor=none;align=left;verticalAlign=top;spacingLeft=4;spacingRight=4;overflow=hidden;rotatable=0;points=[[0,0.5],[1,0.5]];portConstraint=eastwest;whiteSpace=wrap;html=1;" parent="QLSxIjkthWTMOEqyVeDs-36" vertex="1">
          <mxGeometry y="276" width="140" height="26" as="geometry" />
        </mxCell>
        <mxCell id="QLSxIjkthWTMOEqyVeDs-46" value="updated_at: timestamp" style="text;strokeColor=none;fillColor=none;align=left;verticalAlign=top;spacingLeft=4;spacingRight=4;overflow=hidden;rotatable=0;points=[[0,0.5],[1,0.5]];portConstraint=eastwest;whiteSpace=wrap;html=1;" parent="QLSxIjkthWTMOEqyVeDs-36" vertex="1">
          <mxGeometry y="302" width="140" height="26" as="geometry" />
        </mxCell>
        <mxCell id="QLSxIjkthWTMOEqyVeDs-48" value="UserPaper" style="swimlane;fontStyle=0;childLayout=stackLayout;horizontal=1;startSize=26;fillColor=none;horizontalStack=0;resizeParent=1;resizeParentMax=0;resizeLast=0;collapsible=1;marginBottom=0;whiteSpace=wrap;html=1;" parent="WIyWlLk6GJQsqaUBKTNV-1" vertex="1">
          <mxGeometry x="140" y="546" width="170" height="196" as="geometry" />
        </mxCell>
        <mxCell id="QLSxIjkthWTMOEqyVeDs-49" value="userPaperID: int(PK)" style="text;strokeColor=none;fillColor=none;align=left;verticalAlign=top;spacingLeft=4;spacingRight=4;overflow=hidden;rotatable=0;points=[[0,0.5],[1,0.5]];portConstraint=eastwest;whiteSpace=wrap;html=1;" parent="QLSxIjkthWTMOEqyVeDs-48" vertex="1">
          <mxGeometry y="26" width="170" height="26" as="geometry" />
        </mxCell>
        <mxCell id="QLSxIjkthWTMOEqyVeDs-50" value="userID:int (FK-&amp;gt;User)" style="text;strokeColor=none;fillColor=none;align=left;verticalAlign=top;spacingLeft=4;spacingRight=4;overflow=hidden;rotatable=0;points=[[0,0.5],[1,0.5]];portConstraint=eastwest;whiteSpace=wrap;html=1;" parent="QLSxIjkthWTMOEqyVeDs-48" vertex="1">
          <mxGeometry y="52" width="170" height="26" as="geometry" />
        </mxCell>
        <mxCell id="QLSxIjkthWTMOEqyVeDs-51" value="paperID:int (FK-&amp;gt;Project)" style="text;strokeColor=none;fillColor=none;align=left;verticalAlign=top;spacingLeft=4;spacingRight=4;overflow=hidden;rotatable=0;points=[[0,0.5],[1,0.5]];portConstraint=eastwest;whiteSpace=wrap;html=1;" parent="QLSxIjkthWTMOEqyVeDs-48" vertex="1">
          <mxGeometry y="78" width="170" height="42" as="geometry" />
        </mxCell>
        <mxCell id="QLSxIjkthWTMOEqyVeDs-52" value="role:enum(AUTHOR, REVIEWER, etc)" style="text;strokeColor=none;fillColor=none;align=left;verticalAlign=top;spacingLeft=4;spacingRight=4;overflow=hidden;rotatable=0;points=[[0,0.5],[1,0.5]];portConstraint=eastwest;whiteSpace=wrap;html=1;" parent="QLSxIjkthWTMOEqyVeDs-48" vertex="1">
          <mxGeometry y="120" width="170" height="36" as="geometry" />
        </mxCell>
        <mxCell id="QLSxIjkthWTMOEqyVeDs-53" value="joined_at:timestamp" style="text;strokeColor=none;fillColor=none;align=left;verticalAlign=top;spacingLeft=4;spacingRight=4;overflow=hidden;rotatable=0;points=[[0,0.5],[1,0.5]];portConstraint=eastwest;whiteSpace=wrap;html=1;" parent="QLSxIjkthWTMOEqyVeDs-48" vertex="1">
          <mxGeometry y="156" width="170" height="40" as="geometry" />
        </mxCell>
        <mxCell id="QLSxIjkthWTMOEqyVeDs-54" value="Invitation" style="swimlane;fontStyle=0;childLayout=stackLayout;horizontal=1;startSize=26;fillColor=none;horizontalStack=0;resizeParent=1;resizeParentMax=0;resizeLast=0;collapsible=1;marginBottom=0;whiteSpace=wrap;html=1;" parent="WIyWlLk6GJQsqaUBKTNV-1" vertex="1">
          <mxGeometry x="550" y="-390" width="140" height="362" as="geometry" />
        </mxCell>
        <mxCell id="QLSxIjkthWTMOEqyVeDs-55" value="invitationID:int (PK)" style="text;strokeColor=none;fillColor=none;align=left;verticalAlign=top;spacingLeft=4;spacingRight=4;overflow=hidden;rotatable=0;points=[[0,0.5],[1,0.5]];portConstraint=eastwest;whiteSpace=wrap;html=1;" parent="QLSxIjkthWTMOEqyVeDs-54" vertex="1">
          <mxGeometry y="26" width="140" height="26" as="geometry" />
        </mxCell>
        <mxCell id="QLSxIjkthWTMOEqyVeDs-56" value="senderID:int (FK -&amp;gt;User)" style="text;strokeColor=none;fillColor=none;align=left;verticalAlign=top;spacingLeft=4;spacingRight=4;overflow=hidden;rotatable=0;points=[[0,0.5],[1,0.5]];portConstraint=eastwest;whiteSpace=wrap;html=1;" parent="QLSxIjkthWTMOEqyVeDs-54" vertex="1">
          <mxGeometry y="52" width="140" height="38" as="geometry" />
        </mxCell>
        <mxCell id="QLSxIjkthWTMOEqyVeDs-57" value="receiverID:int (FK-&amp;gt;User)" style="text;strokeColor=none;fillColor=none;align=left;verticalAlign=top;spacingLeft=4;spacingRight=4;overflow=hidden;rotatable=0;points=[[0,0.5],[1,0.5]];portConstraint=eastwest;whiteSpace=wrap;html=1;" parent="QLSxIjkthWTMOEqyVeDs-54" vertex="1">
          <mxGeometry y="90" width="140" height="40" as="geometry" />
        </mxCell>
        <mxCell id="QLSxIjkthWTMOEqyVeDs-58" value="projectID:int(FK-&amp;gt;Project, nullable)" style="text;strokeColor=none;fillColor=none;align=left;verticalAlign=top;spacingLeft=4;spacingRight=4;overflow=hidden;rotatable=0;points=[[0,0.5],[1,0.5]];portConstraint=eastwest;whiteSpace=wrap;html=1;" parent="QLSxIjkthWTMOEqyVeDs-54" vertex="1">
          <mxGeometry y="130" width="140" height="36" as="geometry" />
        </mxCell>
        <mxCell id="QLSxIjkthWTMOEqyVeDs-59" value="paperID:int(FK-&amp;gt;Paper, nullable)" style="text;strokeColor=none;fillColor=none;align=left;verticalAlign=top;spacingLeft=4;spacingRight=4;overflow=hidden;rotatable=0;points=[[0,0.5],[1,0.5]];portConstraint=eastwest;whiteSpace=wrap;html=1;" parent="QLSxIjkthWTMOEqyVeDs-54" vertex="1">
          <mxGeometry y="166" width="140" height="40" as="geometry" />
        </mxCell>
        <mxCell id="QLSxIjkthWTMOEqyVeDs-60" value="status: enum(PENDING, ACCEPTED, REJECTED)" style="text;strokeColor=none;fillColor=none;align=left;verticalAlign=top;spacingLeft=4;spacingRight=4;overflow=hidden;rotatable=0;points=[[0,0.5],[1,0.5]];portConstraint=eastwest;whiteSpace=wrap;html=1;" parent="QLSxIjkthWTMOEqyVeDs-54" vertex="1">
          <mxGeometry y="206" width="140" height="64" as="geometry" />
        </mxCell>
        <mxCell id="QLSxIjkthWTMOEqyVeDs-61" value="message: string(optional)" style="text;strokeColor=none;fillColor=none;align=left;verticalAlign=top;spacingLeft=4;spacingRight=4;overflow=hidden;rotatable=0;points=[[0,0.5],[1,0.5]];portConstraint=eastwest;whiteSpace=wrap;html=1;" parent="QLSxIjkthWTMOEqyVeDs-54" vertex="1">
          <mxGeometry y="270" width="140" height="40" as="geometry" />
        </mxCell>
        <mxCell id="QLSxIjkthWTMOEqyVeDs-63" value="created_at: timestamp" style="text;strokeColor=none;fillColor=none;align=left;verticalAlign=top;spacingLeft=4;spacingRight=4;overflow=hidden;rotatable=0;points=[[0,0.5],[1,0.5]];portConstraint=eastwest;whiteSpace=wrap;html=1;" parent="QLSxIjkthWTMOEqyVeDs-54" vertex="1">
          <mxGeometry y="310" width="140" height="26" as="geometry" />
        </mxCell>
        <mxCell id="QLSxIjkthWTMOEqyVeDs-64" value="updated_at: timestamp" style="text;strokeColor=none;fillColor=none;align=left;verticalAlign=top;spacingLeft=4;spacingRight=4;overflow=hidden;rotatable=0;points=[[0,0.5],[1,0.5]];portConstraint=eastwest;whiteSpace=wrap;html=1;" parent="QLSxIjkthWTMOEqyVeDs-54" vertex="1">
          <mxGeometry y="336" width="140" height="26" as="geometry" />
        </mxCell>
        <mxCell id="QLSxIjkthWTMOEqyVeDs-65" value="Review" style="swimlane;fontStyle=0;childLayout=stackLayout;horizontal=1;startSize=26;fillColor=none;horizontalStack=0;resizeParent=1;resizeParentMax=0;resizeLast=0;collapsible=1;marginBottom=0;whiteSpace=wrap;html=1;" parent="WIyWlLk6GJQsqaUBKTNV-1" vertex="1">
          <mxGeometry x="170" y="-250" width="140" height="288" as="geometry" />
        </mxCell>
        <mxCell id="QLSxIjkthWTMOEqyVeDs-66" value="reviewID:int (PK)" style="text;strokeColor=none;fillColor=none;align=left;verticalAlign=top;spacingLeft=4;spacingRight=4;overflow=hidden;rotatable=0;points=[[0,0.5],[1,0.5]];portConstraint=eastwest;whiteSpace=wrap;html=1;" parent="QLSxIjkthWTMOEqyVeDs-65" vertex="1">
          <mxGeometry y="26" width="140" height="26" as="geometry" />
        </mxCell>
        <mxCell id="QLSxIjkthWTMOEqyVeDs-67" value="reviewerID: int(FK-&amp;gt;User)" style="text;strokeColor=none;fillColor=none;align=left;verticalAlign=top;spacingLeft=4;spacingRight=4;overflow=hidden;rotatable=0;points=[[0,0.5],[1,0.5]];portConstraint=eastwest;whiteSpace=wrap;html=1;" parent="QLSxIjkthWTMOEqyVeDs-65" vertex="1">
          <mxGeometry y="52" width="140" height="38" as="geometry" />
        </mxCell>
        <mxCell id="QLSxIjkthWTMOEqyVeDs-68" value="paperID:int (FK -&amp;gt; Paper, nullable)" style="text;strokeColor=none;fillColor=none;align=left;verticalAlign=top;spacingLeft=4;spacingRight=4;overflow=hidden;rotatable=0;points=[[0,0.5],[1,0.5]];portConstraint=eastwest;whiteSpace=wrap;html=1;" parent="QLSxIjkthWTMOEqyVeDs-65" vertex="1">
          <mxGeometry y="90" width="140" height="40" as="geometry" />
        </mxCell>
        <mxCell id="QLSxIjkthWTMOEqyVeDs-69" value="projectID:int (FK -&amp;gt;Project, nullable)" style="text;strokeColor=none;fillColor=none;align=left;verticalAlign=top;spacingLeft=4;spacingRight=4;overflow=hidden;rotatable=0;points=[[0,0.5],[1,0.5]];portConstraint=eastwest;whiteSpace=wrap;html=1;" parent="QLSxIjkthWTMOEqyVeDs-65" vertex="1">
          <mxGeometry y="130" width="140" height="36" as="geometry" />
        </mxCell>
        <mxCell id="QLSxIjkthWTMOEqyVeDs-70" value="rating: int (1-5)" style="text;strokeColor=none;fillColor=none;align=left;verticalAlign=top;spacingLeft=4;spacingRight=4;overflow=hidden;rotatable=0;points=[[0,0.5],[1,0.5]];portConstraint=eastwest;whiteSpace=wrap;html=1;" parent="QLSxIjkthWTMOEqyVeDs-65" vertex="1">
          <mxGeometry y="166" width="140" height="40" as="geometry" />
        </mxCell>
        <mxCell id="QLSxIjkthWTMOEqyVeDs-71" value="comment: string" style="text;strokeColor=none;fillColor=none;align=left;verticalAlign=top;spacingLeft=4;spacingRight=4;overflow=hidden;rotatable=0;points=[[0,0.5],[1,0.5]];portConstraint=eastwest;whiteSpace=wrap;html=1;" parent="QLSxIjkthWTMOEqyVeDs-65" vertex="1">
          <mxGeometry y="206" width="140" height="30" as="geometry" />
        </mxCell>
        <mxCell id="QLSxIjkthWTMOEqyVeDs-73" value="created_at: timestamp" style="text;strokeColor=none;fillColor=none;align=left;verticalAlign=top;spacingLeft=4;spacingRight=4;overflow=hidden;rotatable=0;points=[[0,0.5],[1,0.5]];portConstraint=eastwest;whiteSpace=wrap;html=1;" parent="QLSxIjkthWTMOEqyVeDs-65" vertex="1">
          <mxGeometry y="236" width="140" height="26" as="geometry" />
        </mxCell>
        <mxCell id="QLSxIjkthWTMOEqyVeDs-74" value="updated_at: timestamp" style="text;strokeColor=none;fillColor=none;align=left;verticalAlign=top;spacingLeft=4;spacingRight=4;overflow=hidden;rotatable=0;points=[[0,0.5],[1,0.5]];portConstraint=eastwest;whiteSpace=wrap;html=1;" parent="QLSxIjkthWTMOEqyVeDs-65" vertex="1">
          <mxGeometry y="262" width="140" height="26" as="geometry" />
        </mxCell>
        <mxCell id="QLSxIjkthWTMOEqyVeDs-155" style="edgeStyle=orthogonalEdgeStyle;rounded=0;orthogonalLoop=1;jettySize=auto;html=1;entryX=1;entryY=0.5;entryDx=0;entryDy=0;" parent="WIyWlLk6GJQsqaUBKTNV-1" source="QLSxIjkthWTMOEqyVeDs-75" target="QLSxIjkthWTMOEqyVeDs-18" edge="1">
          <mxGeometry relative="1" as="geometry" />
        </mxCell>
        <mxCell id="QLSxIjkthWTMOEqyVeDs-75" value="RequiredRoles" style="swimlane;fontStyle=0;childLayout=stackLayout;horizontal=1;startSize=26;fillColor=none;horizontalStack=0;resizeParent=1;resizeParentMax=0;resizeLast=0;collapsible=1;marginBottom=0;whiteSpace=wrap;html=1;" parent="WIyWlLk6GJQsqaUBKTNV-1" vertex="1">
          <mxGeometry x="840" y="160" width="170" height="154" as="geometry" />
        </mxCell>
        <mxCell id="QLSxIjkthWTMOEqyVeDs-76" value="requiredRolesID: int(PK)" style="text;strokeColor=none;fillColor=none;align=left;verticalAlign=top;spacingLeft=4;spacingRight=4;overflow=hidden;rotatable=0;points=[[0,0.5],[1,0.5]];portConstraint=eastwest;whiteSpace=wrap;html=1;" parent="QLSxIjkthWTMOEqyVeDs-75" vertex="1">
          <mxGeometry y="26" width="170" height="26" as="geometry" />
        </mxCell>
        <mxCell id="QLSxIjkthWTMOEqyVeDs-77" value="projectID:int (FK-&amp;gt;Project)" style="text;strokeColor=none;fillColor=none;align=left;verticalAlign=top;spacingLeft=4;spacingRight=4;overflow=hidden;rotatable=0;points=[[0,0.5],[1,0.5]];portConstraint=eastwest;whiteSpace=wrap;html=1;" parent="QLSxIjkthWTMOEqyVeDs-75" vertex="1">
          <mxGeometry y="52" width="170" height="26" as="geometry" />
        </mxCell>
        <mxCell id="QLSxIjkthWTMOEqyVeDs-79" value="role: enum(Engineer, Mathematician, Scientist, etc)" style="text;strokeColor=none;fillColor=none;align=left;verticalAlign=top;spacingLeft=4;spacingRight=4;overflow=hidden;rotatable=0;points=[[0,0.5],[1,0.5]];portConstraint=eastwest;whiteSpace=wrap;html=1;" parent="QLSxIjkthWTMOEqyVeDs-75" vertex="1">
          <mxGeometry y="78" width="170" height="36" as="geometry" />
        </mxCell>
        <mxCell id="QLSxIjkthWTMOEqyVeDs-80" value="quantity: int" style="text;strokeColor=none;fillColor=none;align=left;verticalAlign=top;spacingLeft=4;spacingRight=4;overflow=hidden;rotatable=0;points=[[0,0.5],[1,0.5]];portConstraint=eastwest;whiteSpace=wrap;html=1;" parent="QLSxIjkthWTMOEqyVeDs-75" vertex="1">
          <mxGeometry y="114" width="170" height="40" as="geometry" />
        </mxCell>
        <mxCell id="QLSxIjkthWTMOEqyVeDs-81" value="Tutorial" style="swimlane;fontStyle=0;childLayout=stackLayout;horizontal=1;startSize=26;fillColor=none;horizontalStack=0;resizeParent=1;resizeParentMax=0;resizeLast=0;collapsible=1;marginBottom=0;whiteSpace=wrap;html=1;" parent="WIyWlLk6GJQsqaUBKTNV-1" vertex="1">
          <mxGeometry x="-190" y="114" width="170" height="236" as="geometry" />
        </mxCell>
        <mxCell id="QLSxIjkthWTMOEqyVeDs-82" value="tutorialID: int(PK)" style="text;strokeColor=none;fillColor=none;align=left;verticalAlign=top;spacingLeft=4;spacingRight=4;overflow=hidden;rotatable=0;points=[[0,0.5],[1,0.5]];portConstraint=eastwest;whiteSpace=wrap;html=1;" parent="QLSxIjkthWTMOEqyVeDs-81" vertex="1">
          <mxGeometry y="26" width="170" height="26" as="geometry" />
        </mxCell>
        <mxCell id="QLSxIjkthWTMOEqyVeDs-83" value="title: string" style="text;strokeColor=none;fillColor=none;align=left;verticalAlign=top;spacingLeft=4;spacingRight=4;overflow=hidden;rotatable=0;points=[[0,0.5],[1,0.5]];portConstraint=eastwest;whiteSpace=wrap;html=1;" parent="QLSxIjkthWTMOEqyVeDs-81" vertex="1">
          <mxGeometry y="52" width="170" height="26" as="geometry" />
        </mxCell>
        <mxCell id="QLSxIjkthWTMOEqyVeDs-84" value="filePath: string" style="text;strokeColor=none;fillColor=none;align=left;verticalAlign=top;spacingLeft=4;spacingRight=4;overflow=hidden;rotatable=0;points=[[0,0.5],[1,0.5]];portConstraint=eastwest;whiteSpace=wrap;html=1;" parent="QLSxIjkthWTMOEqyVeDs-81" vertex="1">
          <mxGeometry y="78" width="170" height="42" as="geometry" />
        </mxCell>
        <mxCell id="QLSxIjkthWTMOEqyVeDs-85" value="createdBy: int (FK-&amp;gt;User)" style="text;strokeColor=none;fillColor=none;align=left;verticalAlign=top;spacingLeft=4;spacingRight=4;overflow=hidden;rotatable=0;points=[[0,0.5],[1,0.5]];portConstraint=eastwest;whiteSpace=wrap;html=1;" parent="QLSxIjkthWTMOEqyVeDs-81" vertex="1">
          <mxGeometry y="120" width="170" height="36" as="geometry" />
        </mxCell>
        <mxCell id="QLSxIjkthWTMOEqyVeDs-86" value="created_at: timestamp" style="text;strokeColor=none;fillColor=none;align=left;verticalAlign=top;spacingLeft=4;spacingRight=4;overflow=hidden;rotatable=0;points=[[0,0.5],[1,0.5]];portConstraint=eastwest;whiteSpace=wrap;html=1;" parent="QLSxIjkthWTMOEqyVeDs-81" vertex="1">
          <mxGeometry y="156" width="170" height="40" as="geometry" />
        </mxCell>
        <mxCell id="QLSxIjkthWTMOEqyVeDs-87" value="updated_at: timestamp" style="text;strokeColor=none;fillColor=none;align=left;verticalAlign=top;spacingLeft=4;spacingRight=4;overflow=hidden;rotatable=0;points=[[0,0.5],[1,0.5]];portConstraint=eastwest;whiteSpace=wrap;html=1;" parent="QLSxIjkthWTMOEqyVeDs-81" vertex="1">
          <mxGeometry y="196" width="170" height="40" as="geometry" />
        </mxCell>
        <mxCell id="QLSxIjkthWTMOEqyVeDs-88" value="Conversation" style="swimlane;fontStyle=0;childLayout=stackLayout;horizontal=1;startSize=26;fillColor=#0050ef;horizontalStack=0;resizeParent=1;resizeParentMax=0;resizeLast=0;collapsible=1;marginBottom=0;whiteSpace=wrap;html=1;fontColor=#ffffff;strokeColor=#001DBC;" parent="WIyWlLk6GJQsqaUBKTNV-1" vertex="1">
          <mxGeometry x="-370" y="-160" width="170" height="156" as="geometry" />
        </mxCell>
        <mxCell id="QLSxIjkthWTMOEqyVeDs-89" value="conversationID: string(PK)" style="text;strokeColor=none;fillColor=none;align=left;verticalAlign=top;spacingLeft=4;spacingRight=4;overflow=hidden;rotatable=0;points=[[0,0.5],[1,0.5]];portConstraint=eastwest;whiteSpace=wrap;html=1;" parent="QLSxIjkthWTMOEqyVeDs-88" vertex="1">
          <mxGeometry y="26" width="170" height="26" as="geometry" />
        </mxCell>
        <mxCell id="QLSxIjkthWTMOEqyVeDs-90" value="title: string" style="text;strokeColor=none;fillColor=none;align=left;verticalAlign=top;spacingLeft=4;spacingRight=4;overflow=hidden;rotatable=0;points=[[0,0.5],[1,0.5]];portConstraint=eastwest;whiteSpace=wrap;html=1;" parent="QLSxIjkthWTMOEqyVeDs-88" vertex="1">
          <mxGeometry y="52" width="170" height="26" as="geometry" />
        </mxCell>
        <mxCell id="QLSxIjkthWTMOEqyVeDs-91" value="created_at: timestamp" style="text;strokeColor=none;fillColor=none;align=left;verticalAlign=top;spacingLeft=4;spacingRight=4;overflow=hidden;rotatable=0;points=[[0,0.5],[1,0.5]];portConstraint=eastwest;whiteSpace=wrap;html=1;" parent="QLSxIjkthWTMOEqyVeDs-88" vertex="1">
          <mxGeometry y="78" width="170" height="42" as="geometry" />
        </mxCell>
        <mxCell id="QLSxIjkthWTMOEqyVeDs-92" value="array of participant userIDs" style="text;strokeColor=none;fillColor=none;align=left;verticalAlign=top;spacingLeft=4;spacingRight=4;overflow=hidden;rotatable=0;points=[[0,0.5],[1,0.5]];portConstraint=eastwest;whiteSpace=wrap;html=1;" parent="QLSxIjkthWTMOEqyVeDs-88" vertex="1">
          <mxGeometry y="120" width="170" height="36" as="geometry" />
        </mxCell>
        <mxCell id="QLSxIjkthWTMOEqyVeDs-161" style="edgeStyle=orthogonalEdgeStyle;rounded=0;orthogonalLoop=1;jettySize=auto;html=1;" parent="WIyWlLk6GJQsqaUBKTNV-1" source="QLSxIjkthWTMOEqyVeDs-95" target="QLSxIjkthWTMOEqyVeDs-88" edge="1">
          <mxGeometry relative="1" as="geometry" />
        </mxCell>
        <mxCell id="QLSxIjkthWTMOEqyVeDs-95" value="Message(ChatMessage)" style="swimlane;fontStyle=0;childLayout=stackLayout;horizontal=1;startSize=26;fillColor=#0050ef;horizontalStack=0;resizeParent=1;resizeParentMax=0;resizeLast=0;collapsible=1;marginBottom=0;whiteSpace=wrap;html=1;fontColor=#ffffff;strokeColor=#001DBC;" parent="WIyWlLk6GJQsqaUBKTNV-1" vertex="1">
          <mxGeometry x="-130" y="-410" width="170" height="192" as="geometry" />
        </mxCell>
        <mxCell id="QLSxIjkthWTMOEqyVeDs-96" value="messageID: string(PK)" style="text;strokeColor=none;fillColor=none;align=left;verticalAlign=top;spacingLeft=4;spacingRight=4;overflow=hidden;rotatable=0;points=[[0,0.5],[1,0.5]];portConstraint=eastwest;whiteSpace=wrap;html=1;" parent="QLSxIjkthWTMOEqyVeDs-95" vertex="1">
          <mxGeometry y="26" width="170" height="26" as="geometry" />
        </mxCell>
        <mxCell id="QLSxIjkthWTMOEqyVeDs-97" value="conversationID: string" style="text;strokeColor=none;fillColor=none;align=left;verticalAlign=top;spacingLeft=4;spacingRight=4;overflow=hidden;rotatable=0;points=[[0,0.5],[1,0.5]];portConstraint=eastwest;whiteSpace=wrap;html=1;" parent="QLSxIjkthWTMOEqyVeDs-95" vertex="1">
          <mxGeometry y="52" width="170" height="26" as="geometry" />
        </mxCell>
        <mxCell id="QLSxIjkthWTMOEqyVeDs-98" value="senderID: int" style="text;strokeColor=none;fillColor=none;align=left;verticalAlign=top;spacingLeft=4;spacingRight=4;overflow=hidden;rotatable=0;points=[[0,0.5],[1,0.5]];portConstraint=eastwest;whiteSpace=wrap;html=1;" parent="QLSxIjkthWTMOEqyVeDs-95" vertex="1">
          <mxGeometry y="78" width="170" height="42" as="geometry" />
        </mxCell>
        <mxCell id="QLSxIjkthWTMOEqyVeDs-99" value="content: string" style="text;strokeColor=none;fillColor=none;align=left;verticalAlign=top;spacingLeft=4;spacingRight=4;overflow=hidden;rotatable=0;points=[[0,0.5],[1,0.5]];portConstraint=eastwest;whiteSpace=wrap;html=1;" parent="QLSxIjkthWTMOEqyVeDs-95" vertex="1">
          <mxGeometry y="120" width="170" height="36" as="geometry" />
        </mxCell>
        <mxCell id="QLSxIjkthWTMOEqyVeDs-100" value="timestamp: timestamp" style="text;strokeColor=none;fillColor=none;align=left;verticalAlign=top;spacingLeft=4;spacingRight=4;overflow=hidden;rotatable=0;points=[[0,0.5],[1,0.5]];portConstraint=eastwest;whiteSpace=wrap;html=1;" parent="QLSxIjkthWTMOEqyVeDs-95" vertex="1">
          <mxGeometry y="156" width="170" height="36" as="geometry" />
        </mxCell>
        <mxCell id="QLSxIjkthWTMOEqyVeDs-101" value="AIChat" style="swimlane;fontStyle=0;childLayout=stackLayout;horizontal=1;startSize=26;fillColor=#0050ef;horizontalStack=0;resizeParent=1;resizeParentMax=0;resizeLast=0;collapsible=1;marginBottom=0;whiteSpace=wrap;html=1;fontColor=#ffffff;strokeColor=#001DBC;" parent="WIyWlLk6GJQsqaUBKTNV-1" vertex="1">
          <mxGeometry x="-440" y="352" width="170" height="218" as="geometry" />
        </mxCell>
        <mxCell id="QLSxIjkthWTMOEqyVeDs-102" value="aiChatID: string" style="text;strokeColor=none;fillColor=none;align=left;verticalAlign=top;spacingLeft=4;spacingRight=4;overflow=hidden;rotatable=0;points=[[0,0.5],[1,0.5]];portConstraint=eastwest;whiteSpace=wrap;html=1;" parent="QLSxIjkthWTMOEqyVeDs-101" vertex="1">
          <mxGeometry y="26" width="170" height="26" as="geometry" />
        </mxCell>
        <mxCell id="QLSxIjkthWTMOEqyVeDs-103" value="userID: int" style="text;strokeColor=none;fillColor=none;align=left;verticalAlign=top;spacingLeft=4;spacingRight=4;overflow=hidden;rotatable=0;points=[[0,0.5],[1,0.5]];portConstraint=eastwest;whiteSpace=wrap;html=1;" parent="QLSxIjkthWTMOEqyVeDs-101" vertex="1">
          <mxGeometry y="52" width="170" height="26" as="geometry" />
        </mxCell>
        <mxCell id="QLSxIjkthWTMOEqyVeDs-104" value="prompt: text" style="text;strokeColor=none;fillColor=none;align=left;verticalAlign=top;spacingLeft=4;spacingRight=4;overflow=hidden;rotatable=0;points=[[0,0.5],[1,0.5]];portConstraint=eastwest;whiteSpace=wrap;html=1;" parent="QLSxIjkthWTMOEqyVeDs-101" vertex="1">
          <mxGeometry y="78" width="170" height="32" as="geometry" />
        </mxCell>
        <mxCell id="QLSxIjkthWTMOEqyVeDs-105" value="response: text" style="text;strokeColor=none;fillColor=none;align=left;verticalAlign=top;spacingLeft=4;spacingRight=4;overflow=hidden;rotatable=0;points=[[0,0.5],[1,0.5]];portConstraint=eastwest;whiteSpace=wrap;html=1;" parent="QLSxIjkthWTMOEqyVeDs-101" vertex="1">
          <mxGeometry y="110" width="170" height="36" as="geometry" />
        </mxCell>
        <mxCell id="QLSxIjkthWTMOEqyVeDs-106" value="context: string" style="text;strokeColor=none;fillColor=none;align=left;verticalAlign=top;spacingLeft=4;spacingRight=4;overflow=hidden;rotatable=0;points=[[0,0.5],[1,0.5]];portConstraint=eastwest;whiteSpace=wrap;html=1;" parent="QLSxIjkthWTMOEqyVeDs-101" vertex="1">
          <mxGeometry y="146" width="170" height="36" as="geometry" />
        </mxCell>
        <mxCell id="QLSxIjkthWTMOEqyVeDs-107" value="created_at: timestamp" style="text;strokeColor=none;fillColor=none;align=left;verticalAlign=top;spacingLeft=4;spacingRight=4;overflow=hidden;rotatable=0;points=[[0,0.5],[1,0.5]];portConstraint=eastwest;whiteSpace=wrap;html=1;" parent="QLSxIjkthWTMOEqyVeDs-101" vertex="1">
          <mxGeometry y="182" width="170" height="36" as="geometry" />
        </mxCell>
        <mxCell id="QLSxIjkthWTMOEqyVeDs-108" style="edgeStyle=orthogonalEdgeStyle;rounded=0;orthogonalLoop=1;jettySize=auto;html=1;entryX=0.014;entryY=0.039;entryDx=0;entryDy=0;entryPerimeter=0;" parent="WIyWlLk6GJQsqaUBKTNV-1" source="QLSxIjkthWTMOEqyVeDs-1" target="QLSxIjkthWTMOEqyVeDs-13" edge="1">
          <mxGeometry relative="1" as="geometry" />
        </mxCell>
        <mxCell id="QLSxIjkthWTMOEqyVeDs-109" value="1" style="text;html=1;align=center;verticalAlign=middle;whiteSpace=wrap;rounded=0;" parent="WIyWlLk6GJQsqaUBKTNV-1" vertex="1">
          <mxGeometry x="310" y="110" width="60" height="30" as="geometry" />
        </mxCell>
        <mxCell id="QLSxIjkthWTMOEqyVeDs-110" value="0...*" style="text;html=1;align=center;verticalAlign=middle;whiteSpace=wrap;rounded=0;" parent="WIyWlLk6GJQsqaUBKTNV-1" vertex="1">
          <mxGeometry x="480" y="20" width="60" height="30" as="geometry" />
        </mxCell>
        <mxCell id="QLSxIjkthWTMOEqyVeDs-111" style="edgeStyle=orthogonalEdgeStyle;rounded=0;orthogonalLoop=1;jettySize=auto;html=1;entryX=0.25;entryY=0;entryDx=0;entryDy=0;" parent="WIyWlLk6GJQsqaUBKTNV-1" source="QLSxIjkthWTMOEqyVeDs-2" target="QLSxIjkthWTMOEqyVeDs-25" edge="1">
          <mxGeometry relative="1" as="geometry" />
        </mxCell>
        <mxCell id="QLSxIjkthWTMOEqyVeDs-113" value="1" style="text;html=1;align=center;verticalAlign=middle;whiteSpace=wrap;rounded=0;" parent="WIyWlLk6GJQsqaUBKTNV-1" vertex="1">
          <mxGeometry x="300" y="170" width="60" height="30" as="geometry" />
        </mxCell>
        <mxCell id="QLSxIjkthWTMOEqyVeDs-114" value="0...*" style="text;html=1;align=center;verticalAlign=middle;whiteSpace=wrap;rounded=0;" parent="WIyWlLk6GJQsqaUBKTNV-1" vertex="1">
          <mxGeometry x="354" y="310" width="60" height="30" as="geometry" />
        </mxCell>
        <mxCell id="QLSxIjkthWTMOEqyVeDs-116" style="edgeStyle=orthogonalEdgeStyle;rounded=0;orthogonalLoop=1;jettySize=auto;html=1;entryX=0.631;entryY=0.007;entryDx=0;entryDy=0;entryPerimeter=0;" parent="WIyWlLk6GJQsqaUBKTNV-1" source="QLSxIjkthWTMOEqyVeDs-18" target="QLSxIjkthWTMOEqyVeDs-25" edge="1">
          <mxGeometry relative="1" as="geometry" />
        </mxCell>
        <mxCell id="QLSxIjkthWTMOEqyVeDs-117" value="1" style="text;html=1;align=center;verticalAlign=middle;whiteSpace=wrap;rounded=0;" parent="WIyWlLk6GJQsqaUBKTNV-1" vertex="1">
          <mxGeometry x="490" y="130" width="60" height="30" as="geometry" />
        </mxCell>
        <mxCell id="QLSxIjkthWTMOEqyVeDs-118" value="0...*" style="text;html=1;align=center;verticalAlign=middle;whiteSpace=wrap;rounded=0;" parent="WIyWlLk6GJQsqaUBKTNV-1" vertex="1">
          <mxGeometry x="460" y="310" width="60" height="30" as="geometry" />
        </mxCell>
        <mxCell id="QLSxIjkthWTMOEqyVeDs-119" style="edgeStyle=orthogonalEdgeStyle;rounded=0;orthogonalLoop=1;jettySize=auto;html=1;entryX=1.002;entryY=0.062;entryDx=0;entryDy=0;entryPerimeter=0;" parent="WIyWlLk6GJQsqaUBKTNV-1" source="QLSxIjkthWTMOEqyVeDs-11" target="QLSxIjkthWTMOEqyVeDs-36" edge="1">
          <mxGeometry relative="1" as="geometry" />
        </mxCell>
        <mxCell id="QLSxIjkthWTMOEqyVeDs-120" value="1" style="text;html=1;align=center;verticalAlign=middle;whiteSpace=wrap;rounded=0;" parent="WIyWlLk6GJQsqaUBKTNV-1" vertex="1">
          <mxGeometry x="140" y="380" width="60" height="30" as="geometry" />
        </mxCell>
        <mxCell id="QLSxIjkthWTMOEqyVeDs-121" value="0...*" style="text;html=1;align=center;verticalAlign=middle;whiteSpace=wrap;rounded=0;" parent="WIyWlLk6GJQsqaUBKTNV-1" vertex="1">
          <mxGeometry x="70" y="390" width="60" height="30" as="geometry" />
        </mxCell>
        <mxCell id="QLSxIjkthWTMOEqyVeDs-122" style="edgeStyle=orthogonalEdgeStyle;rounded=0;orthogonalLoop=1;jettySize=auto;html=1;entryX=0.171;entryY=0.003;entryDx=0;entryDy=0;entryPerimeter=0;" parent="WIyWlLk6GJQsqaUBKTNV-1" source="QLSxIjkthWTMOEqyVeDs-12" target="QLSxIjkthWTMOEqyVeDs-48" edge="1">
          <mxGeometry relative="1" as="geometry" />
        </mxCell>
        <mxCell id="QLSxIjkthWTMOEqyVeDs-123" style="edgeStyle=orthogonalEdgeStyle;rounded=0;orthogonalLoop=1;jettySize=auto;html=1;entryX=-0.022;entryY=0.126;entryDx=0;entryDy=0;entryPerimeter=0;" parent="WIyWlLk6GJQsqaUBKTNV-1" source="QLSxIjkthWTMOEqyVeDs-42" target="QLSxIjkthWTMOEqyVeDs-48" edge="1">
          <mxGeometry relative="1" as="geometry" />
        </mxCell>
        <mxCell id="QLSxIjkthWTMOEqyVeDs-124" value="1" style="text;html=1;align=center;verticalAlign=middle;whiteSpace=wrap;rounded=0;" parent="WIyWlLk6GJQsqaUBKTNV-1" vertex="1">
          <mxGeometry x="150" y="433" width="60" height="30" as="geometry" />
        </mxCell>
        <mxCell id="QLSxIjkthWTMOEqyVeDs-125" value="0...*" style="text;html=1;align=center;verticalAlign=middle;whiteSpace=wrap;rounded=0;" parent="WIyWlLk6GJQsqaUBKTNV-1" vertex="1">
          <mxGeometry x="160" y="516" width="60" height="30" as="geometry" />
        </mxCell>
        <mxCell id="QLSxIjkthWTMOEqyVeDs-126" value="1" style="text;html=1;align=center;verticalAlign=middle;whiteSpace=wrap;rounded=0;" parent="WIyWlLk6GJQsqaUBKTNV-1" vertex="1">
          <mxGeometry x="50" y="555" width="60" height="30" as="geometry" />
        </mxCell>
        <mxCell id="QLSxIjkthWTMOEqyVeDs-127" value="0...*" style="text;html=1;align=center;verticalAlign=middle;whiteSpace=wrap;rounded=0;" parent="WIyWlLk6GJQsqaUBKTNV-1" vertex="1">
          <mxGeometry x="90" y="570" width="60" height="30" as="geometry" />
        </mxCell>
        <mxCell id="QLSxIjkthWTMOEqyVeDs-129" value="1" style="text;html=1;align=center;verticalAlign=middle;whiteSpace=wrap;rounded=0;" parent="WIyWlLk6GJQsqaUBKTNV-1" vertex="1">
          <mxGeometry x="560" y="330" width="60" height="30" as="geometry" />
        </mxCell>
        <mxCell id="QLSxIjkthWTMOEqyVeDs-131" style="edgeStyle=orthogonalEdgeStyle;rounded=0;orthogonalLoop=1;jettySize=auto;html=1;entryX=-0.007;entryY=1.005;entryDx=0;entryDy=0;entryPerimeter=0;" parent="WIyWlLk6GJQsqaUBKTNV-1" source="QLSxIjkthWTMOEqyVeDs-0" target="QLSxIjkthWTMOEqyVeDs-60" edge="1">
          <mxGeometry relative="1" as="geometry">
            <Array as="points">
              <mxPoint x="390" y="110" />
              <mxPoint x="390" y="-120" />
            </Array>
          </mxGeometry>
        </mxCell>
        <mxCell id="QLSxIjkthWTMOEqyVeDs-132" value="1" style="text;html=1;align=center;verticalAlign=middle;whiteSpace=wrap;rounded=0;" parent="WIyWlLk6GJQsqaUBKTNV-1" vertex="1">
          <mxGeometry x="330" y="80" width="60" height="30" as="geometry" />
        </mxCell>
        <mxCell id="QLSxIjkthWTMOEqyVeDs-133" value="0...*" style="text;html=1;align=center;verticalAlign=middle;whiteSpace=wrap;rounded=0;" parent="WIyWlLk6GJQsqaUBKTNV-1" vertex="1">
          <mxGeometry x="490" y="-160" width="60" height="30" as="geometry" />
        </mxCell>
        <mxCell id="QLSxIjkthWTMOEqyVeDs-134" style="edgeStyle=orthogonalEdgeStyle;rounded=0;orthogonalLoop=1;jettySize=auto;html=1;entryX=1.017;entryY=0.141;entryDx=0;entryDy=0;entryPerimeter=0;" parent="WIyWlLk6GJQsqaUBKTNV-1" source="QLSxIjkthWTMOEqyVeDs-60" target="QLSxIjkthWTMOEqyVeDs-14" edge="1">
          <mxGeometry relative="1" as="geometry">
            <Array as="points">
              <mxPoint x="720" y="-152" />
              <mxPoint x="720" y="30" />
            </Array>
          </mxGeometry>
        </mxCell>
        <mxCell id="QLSxIjkthWTMOEqyVeDs-135" value="0...1" style="text;html=1;align=center;verticalAlign=middle;whiteSpace=wrap;rounded=0;" parent="WIyWlLk6GJQsqaUBKTNV-1" vertex="1">
          <mxGeometry x="690" y="-180" width="60" height="30" as="geometry" />
        </mxCell>
        <mxCell id="QLSxIjkthWTMOEqyVeDs-136" value="0...*" style="text;html=1;align=center;verticalAlign=middle;whiteSpace=wrap;rounded=0;" parent="WIyWlLk6GJQsqaUBKTNV-1" vertex="1">
          <mxGeometry x="680" y="30" width="60" height="30" as="geometry" />
        </mxCell>
        <mxCell id="QLSxIjkthWTMOEqyVeDs-137" style="edgeStyle=orthogonalEdgeStyle;rounded=0;orthogonalLoop=1;jettySize=auto;html=1;" parent="WIyWlLk6GJQsqaUBKTNV-1" source="QLSxIjkthWTMOEqyVeDs-58" edge="1">
          <mxGeometry relative="1" as="geometry">
            <Array as="points">
              <mxPoint x="740" y="-242" />
              <mxPoint x="740" y="800" />
              <mxPoint x="26" y="800" />
            </Array>
            <mxPoint x="26" y="731" as="targetPoint" />
          </mxGeometry>
        </mxCell>
        <mxCell id="QLSxIjkthWTMOEqyVeDs-138" value="0...1" style="text;html=1;align=center;verticalAlign=middle;whiteSpace=wrap;rounded=0;" parent="WIyWlLk6GJQsqaUBKTNV-1" vertex="1">
          <mxGeometry x="690" y="-280" width="60" height="30" as="geometry" />
        </mxCell>
        <mxCell id="QLSxIjkthWTMOEqyVeDs-139" value="0...*" style="text;html=1;align=center;verticalAlign=middle;whiteSpace=wrap;rounded=0;" parent="WIyWlLk6GJQsqaUBKTNV-1" vertex="1">
          <mxGeometry x="-650" y="850" width="60" height="30" as="geometry" />
        </mxCell>
        <mxCell id="QLSxIjkthWTMOEqyVeDs-140" value="0...*" style="text;html=1;align=center;verticalAlign=middle;whiteSpace=wrap;rounded=0;" parent="WIyWlLk6GJQsqaUBKTNV-1" vertex="1">
          <mxGeometry x="30" y="810" width="60" height="30" as="geometry" />
        </mxCell>
        <mxCell id="QLSxIjkthWTMOEqyVeDs-141" style="edgeStyle=orthogonalEdgeStyle;rounded=0;orthogonalLoop=1;jettySize=auto;html=1;entryX=0.413;entryY=0.015;entryDx=0;entryDy=0;entryPerimeter=0;" parent="WIyWlLk6GJQsqaUBKTNV-1" source="QLSxIjkthWTMOEqyVeDs-65" target="QLSxIjkthWTMOEqyVeDs-0" edge="1">
          <mxGeometry relative="1" as="geometry" />
        </mxCell>
        <mxCell id="QLSxIjkthWTMOEqyVeDs-143" value="1" style="text;html=1;align=center;verticalAlign=middle;whiteSpace=wrap;rounded=0;" parent="WIyWlLk6GJQsqaUBKTNV-1" vertex="1">
          <mxGeometry x="230" y="38" width="60" height="30" as="geometry" />
        </mxCell>
        <mxCell id="QLSxIjkthWTMOEqyVeDs-144" value="0...*" style="text;html=1;align=center;verticalAlign=middle;whiteSpace=wrap;rounded=0;" parent="WIyWlLk6GJQsqaUBKTNV-1" vertex="1">
          <mxGeometry x="190" y="68" width="60" height="30" as="geometry" />
        </mxCell>
        <mxCell id="QLSxIjkthWTMOEqyVeDs-145" style="edgeStyle=orthogonalEdgeStyle;rounded=0;orthogonalLoop=1;jettySize=auto;html=1;entryX=0.853;entryY=0.018;entryDx=0;entryDy=0;entryPerimeter=0;" parent="WIyWlLk6GJQsqaUBKTNV-1" source="QLSxIjkthWTMOEqyVeDs-71" target="QLSxIjkthWTMOEqyVeDs-36" edge="1">
          <mxGeometry relative="1" as="geometry" />
        </mxCell>
        <mxCell id="QLSxIjkthWTMOEqyVeDs-146" value="0...1" style="text;html=1;align=center;verticalAlign=middle;whiteSpace=wrap;rounded=0;" parent="WIyWlLk6GJQsqaUBKTNV-1" vertex="1">
          <mxGeometry x="110" y="-58" width="60" height="30" as="geometry" />
        </mxCell>
        <mxCell id="QLSxIjkthWTMOEqyVeDs-147" value="0...*" style="text;html=1;align=center;verticalAlign=middle;whiteSpace=wrap;rounded=0;" parent="WIyWlLk6GJQsqaUBKTNV-1" vertex="1">
          <mxGeometry y="370" width="60" height="30" as="geometry" />
        </mxCell>
        <mxCell id="QLSxIjkthWTMOEqyVeDs-149" style="edgeStyle=orthogonalEdgeStyle;rounded=0;orthogonalLoop=1;jettySize=auto;html=1;" parent="WIyWlLk6GJQsqaUBKTNV-1" source="QLSxIjkthWTMOEqyVeDs-71" target="QLSxIjkthWTMOEqyVeDs-13" edge="1">
          <mxGeometry relative="1" as="geometry">
            <Array as="points">
              <mxPoint x="610" y="-20" />
            </Array>
          </mxGeometry>
        </mxCell>
        <mxCell id="QLSxIjkthWTMOEqyVeDs-150" value="0...1" style="text;html=1;align=center;verticalAlign=middle;whiteSpace=wrap;rounded=0;" parent="WIyWlLk6GJQsqaUBKTNV-1" vertex="1">
          <mxGeometry x="310" y="-58" width="60" height="30" as="geometry" />
        </mxCell>
        <mxCell id="QLSxIjkthWTMOEqyVeDs-151" value="0...*" style="text;html=1;align=center;verticalAlign=middle;whiteSpace=wrap;rounded=0;" parent="WIyWlLk6GJQsqaUBKTNV-1" vertex="1">
          <mxGeometry x="480" y="-50" width="60" height="30" as="geometry" />
        </mxCell>
        <mxCell id="QLSxIjkthWTMOEqyVeDs-152" style="edgeStyle=orthogonalEdgeStyle;rounded=0;orthogonalLoop=1;jettySize=auto;html=1;entryX=-0.017;entryY=0.054;entryDx=0;entryDy=0;entryPerimeter=0;" parent="WIyWlLk6GJQsqaUBKTNV-1" source="QLSxIjkthWTMOEqyVeDs-81" target="QLSxIjkthWTMOEqyVeDs-0" edge="1">
          <mxGeometry relative="1" as="geometry" />
        </mxCell>
        <mxCell id="QLSxIjkthWTMOEqyVeDs-153" value="1" style="text;html=1;align=center;verticalAlign=middle;whiteSpace=wrap;rounded=0;" parent="WIyWlLk6GJQsqaUBKTNV-1" vertex="1">
          <mxGeometry x="-40" y="230" width="60" height="30" as="geometry" />
        </mxCell>
        <mxCell id="QLSxIjkthWTMOEqyVeDs-154" value="0...*" style="text;html=1;align=center;verticalAlign=middle;whiteSpace=wrap;rounded=0;" parent="WIyWlLk6GJQsqaUBKTNV-1" vertex="1">
          <mxGeometry x="120" y="120" width="60" height="30" as="geometry" />
        </mxCell>
        <mxCell id="QLSxIjkthWTMOEqyVeDs-156" value="1" style="text;html=1;align=center;verticalAlign=middle;whiteSpace=wrap;rounded=0;" parent="WIyWlLk6GJQsqaUBKTNV-1" vertex="1">
          <mxGeometry x="800" y="210" width="60" height="30" as="geometry" />
        </mxCell>
        <mxCell id="QLSxIjkthWTMOEqyVeDs-157" value="0...*" style="text;html=1;align=center;verticalAlign=middle;whiteSpace=wrap;rounded=0;" parent="WIyWlLk6GJQsqaUBKTNV-1" vertex="1">
          <mxGeometry x="670" y="160" width="60" height="30" as="geometry" />
        </mxCell>
        <mxCell id="QLSxIjkthWTMOEqyVeDs-158" style="edgeStyle=orthogonalEdgeStyle;rounded=0;orthogonalLoop=1;jettySize=auto;html=1;entryX=0;entryY=0.846;entryDx=0;entryDy=0;entryPerimeter=0;dashed=1;" parent="WIyWlLk6GJQsqaUBKTNV-1" source="QLSxIjkthWTMOEqyVeDs-88" target="QLSxIjkthWTMOEqyVeDs-4" edge="1">
          <mxGeometry relative="1" as="geometry">
            <Array as="points">
              <mxPoint y="-82" />
              <mxPoint y="200" />
            </Array>
          </mxGeometry>
        </mxCell>
        <mxCell id="QLSxIjkthWTMOEqyVeDs-159" value="0...*" style="text;html=1;align=center;verticalAlign=middle;whiteSpace=wrap;rounded=0;" parent="WIyWlLk6GJQsqaUBKTNV-1" vertex="1">
          <mxGeometry x="-190" y="-121" width="60" height="30" as="geometry" />
        </mxCell>
        <mxCell id="QLSxIjkthWTMOEqyVeDs-160" value="1" style="text;html=1;align=center;verticalAlign=middle;whiteSpace=wrap;rounded=0;" parent="WIyWlLk6GJQsqaUBKTNV-1" vertex="1">
          <mxGeometry x="120" y="210" width="60" height="30" as="geometry" />
        </mxCell>
        <mxCell id="QLSxIjkthWTMOEqyVeDs-162" value="0...*" style="text;html=1;align=center;verticalAlign=middle;whiteSpace=wrap;rounded=0;" parent="WIyWlLk6GJQsqaUBKTNV-1" vertex="1">
          <mxGeometry x="-280" y="-190" width="60" height="30" as="geometry" />
        </mxCell>
        <mxCell id="QLSxIjkthWTMOEqyVeDs-163" value="1" style="text;html=1;align=center;verticalAlign=middle;whiteSpace=wrap;rounded=0;" parent="WIyWlLk6GJQsqaUBKTNV-1" vertex="1">
          <mxGeometry x="-180" y="-310" width="60" height="30" as="geometry" />
        </mxCell>
        <mxCell id="QLSxIjkthWTMOEqyVeDs-164" style="edgeStyle=orthogonalEdgeStyle;rounded=0;orthogonalLoop=1;jettySize=auto;html=1;" parent="WIyWlLk6GJQsqaUBKTNV-1" source="QLSxIjkthWTMOEqyVeDs-100" target="QLSxIjkthWTMOEqyVeDs-0" edge="1">
          <mxGeometry relative="1" as="geometry">
            <Array as="points">
              <mxPoint x="-45" y="-200" />
              <mxPoint x="100" y="-200" />
              <mxPoint x="100" y="110" />
            </Array>
          </mxGeometry>
        </mxCell>
        <mxCell id="QLSxIjkthWTMOEqyVeDs-165" value="0...*" style="text;html=1;align=center;verticalAlign=middle;whiteSpace=wrap;rounded=0;" parent="WIyWlLk6GJQsqaUBKTNV-1" vertex="1">
          <mxGeometry x="120" y="80" width="60" height="30" as="geometry" />
        </mxCell>
        <mxCell id="QLSxIjkthWTMOEqyVeDs-166" value="1" style="text;html=1;align=center;verticalAlign=middle;whiteSpace=wrap;rounded=0;" parent="WIyWlLk6GJQsqaUBKTNV-1" vertex="1">
          <mxGeometry x="-90" y="-218" width="60" height="30" as="geometry" />
        </mxCell>
        <mxCell id="QLSxIjkthWTMOEqyVeDs-175" style="edgeStyle=orthogonalEdgeStyle;rounded=0;orthogonalLoop=1;jettySize=auto;html=1;exitX=1;exitY=0.5;exitDx=0;exitDy=0;dashed=1;" parent="WIyWlLk6GJQsqaUBKTNV-1" source="QLSxIjkthWTMOEqyVeDs-102" edge="1">
          <mxGeometry relative="1" as="geometry">
            <mxPoint x="180" y="360" as="targetPoint" />
            <Array as="points">
              <mxPoint x="-45" y="391" />
              <mxPoint x="-45" y="360" />
              <mxPoint x="181" y="360" />
            </Array>
          </mxGeometry>
        </mxCell>
        <mxCell id="QLSxIjkthWTMOEqyVeDs-176" value="1" style="text;html=1;align=center;verticalAlign=middle;whiteSpace=wrap;rounded=0;" parent="WIyWlLk6GJQsqaUBKTNV-1" vertex="1">
          <mxGeometry x="-290" y="390" width="60" height="30" as="geometry" />
        </mxCell>
        <mxCell id="QLSxIjkthWTMOEqyVeDs-177" value="0...*" style="text;html=1;align=center;verticalAlign=middle;whiteSpace=wrap;rounded=0;" parent="WIyWlLk6GJQsqaUBKTNV-1" vertex="1">
          <mxGeometry x="130" y="330" width="60" height="30" as="geometry" />
        </mxCell>
        <mxCell id="LJWcZ4sgkJysPHGptBHR-0" value="PaperProject" style="swimlane;fontStyle=0;childLayout=stackLayout;horizontal=1;startSize=26;fillColor=none;horizontalStack=0;resizeParent=1;resizeParentMax=0;resizeLast=0;collapsible=1;marginBottom=0;whiteSpace=wrap;html=1;" parent="WIyWlLk6GJQsqaUBKTNV-1" vertex="1">
          <mxGeometry x="540" y="555" width="170" height="196" as="geometry" />
        </mxCell>
        <mxCell id="LJWcZ4sgkJysPHGptBHR-1" value="paperProject: int(PK)" style="text;strokeColor=none;fillColor=none;align=left;verticalAlign=top;spacingLeft=4;spacingRight=4;overflow=hidden;rotatable=0;points=[[0,0.5],[1,0.5]];portConstraint=eastwest;whiteSpace=wrap;html=1;" parent="LJWcZ4sgkJysPHGptBHR-0" vertex="1">
          <mxGeometry y="26" width="170" height="26" as="geometry" />
        </mxCell>
        <mxCell id="LJWcZ4sgkJysPHGptBHR-2" value="paperID:int (FK-&amp;gt;Paper)" style="text;strokeColor=none;fillColor=none;align=left;verticalAlign=top;spacingLeft=4;spacingRight=4;overflow=hidden;rotatable=0;points=[[0,0.5],[1,0.5]];portConstraint=eastwest;whiteSpace=wrap;html=1;" parent="LJWcZ4sgkJysPHGptBHR-0" vertex="1">
          <mxGeometry y="52" width="170" height="26" as="geometry" />
        </mxCell>
        <mxCell id="LJWcZ4sgkJysPHGptBHR-3" value="projectID:int (FK-&amp;gt;Project)" style="text;strokeColor=none;fillColor=none;align=left;verticalAlign=top;spacingLeft=4;spacingRight=4;overflow=hidden;rotatable=0;points=[[0,0.5],[1,0.5]];portConstraint=eastwest;whiteSpace=wrap;html=1;" parent="LJWcZ4sgkJysPHGptBHR-0" vertex="1">
          <mxGeometry y="78" width="170" height="42" as="geometry" />
        </mxCell>
        <mxCell id="LJWcZ4sgkJysPHGptBHR-4" value="added_by:int (FK-&amp;gt;User)" style="text;strokeColor=none;fillColor=none;align=left;verticalAlign=top;spacingLeft=4;spacingRight=4;overflow=hidden;rotatable=0;points=[[0,0.5],[1,0.5]];portConstraint=eastwest;whiteSpace=wrap;html=1;" parent="LJWcZ4sgkJysPHGptBHR-0" vertex="1">
          <mxGeometry y="120" width="170" height="36" as="geometry" />
        </mxCell>
        <mxCell id="LJWcZ4sgkJysPHGptBHR-5" value="added_at:timestamp" style="text;strokeColor=none;fillColor=none;align=left;verticalAlign=top;spacingLeft=4;spacingRight=4;overflow=hidden;rotatable=0;points=[[0,0.5],[1,0.5]];portConstraint=eastwest;whiteSpace=wrap;html=1;" parent="LJWcZ4sgkJysPHGptBHR-0" vertex="1">
          <mxGeometry y="156" width="170" height="40" as="geometry" />
        </mxCell>
        <mxCell id="LJWcZ4sgkJysPHGptBHR-6" value="1" style="text;html=1;align=center;verticalAlign=middle;whiteSpace=wrap;rounded=0;" parent="WIyWlLk6GJQsqaUBKTNV-1" vertex="1">
          <mxGeometry x="-75" y="730" width="60" height="30" as="geometry" />
        </mxCell>
        <mxCell id="LJWcZ4sgkJysPHGptBHR-8" value="0...*" style="text;html=1;align=center;verticalAlign=middle;whiteSpace=wrap;rounded=0;" parent="WIyWlLk6GJQsqaUBKTNV-1" vertex="1">
          <mxGeometry x="480" y="620" width="60" height="30" as="geometry" />
        </mxCell>
        <mxCell id="LJWcZ4sgkJysPHGptBHR-9" style="edgeStyle=orthogonalEdgeStyle;rounded=0;orthogonalLoop=1;jettySize=auto;html=1;entryX=0.412;entryY=-0.026;entryDx=0;entryDy=0;entryPerimeter=0;exitX=0.5;exitY=1;exitDx=0;exitDy=0;" parent="WIyWlLk6GJQsqaUBKTNV-1" source="QLSxIjkthWTMOEqyVeDs-13" target="LJWcZ4sgkJysPHGptBHR-0" edge="1">
          <mxGeometry relative="1" as="geometry">
            <mxPoint x="610" y="330" as="sourcePoint" />
            <Array as="points" />
          </mxGeometry>
        </mxCell>
        <mxCell id="LJWcZ4sgkJysPHGptBHR-10" value="0...*" style="text;html=1;align=center;verticalAlign=middle;whiteSpace=wrap;rounded=0;" parent="WIyWlLk6GJQsqaUBKTNV-1" vertex="1">
          <mxGeometry x="620" y="525" width="60" height="30" as="geometry" />
        </mxCell>
      </root>
    </mxGraphModel>
  </diagram>
</mxfile>
